<svg xmlns="http://www.w3.org/2000/svg" viewBox="0 0 600 800">
<g stroke="#c3996c" stroke-width="4">
<line x1="28" y1="6" x2="28" y2="26"/>
<line x1="28" y1="774" x2="28" y2="794"/>
<line x1="40" y1="6" x2="40" y2="26"/>
<line x1="40" y1="774" x2="40" y2="794"/>
<line x1="52" y1="6" x2="52" y2="26"/>
<line x1="52" y1="774" x2="52" y2="794"/>
<line x1="64" y1="6" x2="64" y2="26"/>
<line x1="64" y1="774" x2="64" y2="794"/>
<line x1="76" y1="6" x2="76" y2="26"/>
<line x1="76" y1="774" x2="76" y2="794"/>
<line x1="88" y1="6" x2="88" y2="26"/>
<line x1="88" y1="774" x2="88" y2="794"/>
<line x1="100" y1="6" x2="100" y2="26"/>
<line x1="100" y1="774" x2="100" y2="794"/>
<line x1="112" y1="6" x2="112" y2="26"/>
<line x1="112" y1="774" x2="112" y2="794"/>
<line x1="124" y1="6" x2="124" y2="26"/>
<line x1="124" y1="774" x2="124" y2="794"/>
<line x1="136" y1="6" x2="136" y2="26"/>
<line x1="136" y1="774" x2="136" y2="794"/>
<line x1="148" y1="6" x2="148" y2="26"/>
<line x1="148" y1="774" x2="148" y2="794"/>
<line x1="160" y1="6" x2="160" y2="26"/>
<line x1="160" y1="774" x2="160" y2="794"/>
<line x1="172" y1="6" x2="172" y2="26"/>
<line x1="172" y1="774" x2="172" y2="794"/>
<line x1="184" y1="6" x2="184" y2="26"/>
<line x1="184" y1="774" x2="184" y2="794"/>
<line x1="196" y1="6" x2="196" y2="26"/>
<line x1="196" y1="774" x2="196" y2="794"/>
<line x1="208" y1="6" x2="208" y2="26"/>
<line x1="208" y1="774" x2="208" y2="794"/>
<line x1="220" y1="6" x2="220" y2="26"/>
<line x1="220" y1="774" x2="220" y2="794"/>
<line x1="232" y1="6" x2="232" y2="26"/>
<line x1="232" y1="774" x2="232" y2="794"/>
<line x1="244" y1="6" x2="244" y2="26"/>
<line x1="244" y1="774" x2="244" y2="794"/>
<line x1="256" y1="6" x2="256" y2="26"/>
<line x1="256" y1="774" x2="256" y2="794"/>
<line x1="268" y1="6" x2="268" y2="26"/>
<line x1="268" y1="774" x2="268" y2="794"/>
<line x1="280" y1="6" x2="280" y2="26"/>
<line x1="280" y1="774" x2="280" y2="794"/>
<line x1="292" y1="6" x2="292" y2="26"/>
<line x1="292" y1="774" x2="292" y2="794"/>
<line x1="304" y1="6" x2="304" y2="26"/>
<line x1="304" y1="774" x2="304" y2="794"/>
<line x1="316" y1="6" x2="316" y2="26"/>
<line x1="316" y1="774" x2="316" y2="794"/>
<line x1="328" y1="6" x2="328" y2="26"/>
<line x1="328" y1="774" x2="328" y2="794"/>
<line x1="340" y1="6" x2="340" y2="26"/>
<line x1="340" y1="774" x2="340" y2="794"/>
<line x1="352" y1="6" x2="352" y2="26"/>
<line x1="352" y1="774" x2="352" y2="794"/>
<line x1="364" y1="6" x2="364" y2="26"/>
<line x1="364" y1="774" x2="364" y2="794"/>
<line x1="376" y1="6" x2="376" y2="26"/>
<line x1="376" y1="774" x2="376" y2="794"/>
<line x1="388" y1="6" x2="388" y2="26"/>
<line x1="388" y1="774" x2="388" y2="794"/>
<line x1="400" y1="6" x2="400" y2="26"/>
<line x1="400" y1="774" x2="400" y2="794"/>
<line x1="412" y1="6" x2="412" y2="26"/>
<line x1="412" y1="774" x2="412" y2="794"/>
<line x1="424" y1="6" x2="424" y2="26"/>
<line x1="424" y1="774" x2="424" y2="794"/>
<line x1="436" y1="6" x2="436" y2="26"/>
<line x1="436" y1="774" x2="436" y2="794"/>
<line x1="448" y1="6" x2="448" y2="26"/>
<line x1="448" y1="774" x2="448" y2="794"/>
<line x1="460" y1="6" x2="460" y2="26"/>
<line x1="460" y1="774" x2="460" y2="794"/>
<line x1="472" y1="6" x2="472" y2="26"/>
<line x1="472" y1="774" x2="472" y2="794"/>
<line x1="484" y1="6" x2="484" y2="26"/>
<line x1="484" y1="774" x2="484" y2="794"/>
<line x1="496" y1="6" x2="496" y2="26"/>
<line x1="496" y1="774" x2="496" y2="794"/>
<line x1="508" y1="6" x2="508" y2="26"/>
<line x1="508" y1="774" x2="508" y2="794"/>
<line x1="520" y1="6" x2="520" y2="26"/>
<line x1="520" y1="774" x2="520" y2="794"/>
<line x1="532" y1="6" x2="532" y2="26"/>
<line x1="532" y1="774" x2="532" y2="794"/>
<line x1="544" y1="6" x2="544" y2="26"/>
<line x1="544" y1="774" x2="544" y2="794"/>
<line x1="556" y1="6" x2="556" y2="26"/>
<line x1="556" y1="774" x2="556" y2="794"/>
<line x1="568" y1="6" x2="568" y2="26"/>
<line x1="568" y1="774" x2="568" y2="794"/>
</g>
<clipPath id="body"><rect x="20" y="26" width="560" height="748"/></clipPath>
<g clip-path="url(#body)">
<rect x="20" y="26" width="560" height="748" fill="#21403d"/>
<rect x="38" y="44" width="524" height="712" fill="none" stroke="#f4ede0" stroke-width="3"/>
<rect x="50" y="56" width="500" height="688" fill="none" stroke="#c3996c" stroke-width="10"/>
<rect x="72" y="78" width="456" height="644" fill="none" stroke="#f4ede0" stroke-width="2"/>
<path d="M0-26 C6-18 14-14 17-7 C20-1 17 5 12 9 C8 12 3 16 0 22 C-3 16 -8 12 -12 9 C-17 5 -20-1 -17-7 C-14-14 -6-18 0-26 Z" fill="#f4ede0" fill-opacity="1.0" transform="translate(100,67) scale(0.42)"/>
<path d="M0-26 C6-18 14-14 17-7 C20-1 17 5 12 9 C8 12 3 16 0 22 C-3 16 -8 12 -12 9 C-17 5 -20-1 -17-7 C-14-14 -6-18 0-26 Z" fill="#f4ede0" fill-opacity="1.0" transform="translate(100,733) scale(0.42)"/>
<path d="M0-26 C6-18 14-14 17-7 C20-1 17 5 12 9 C8 12 3 16 0 22 C-3 16 -8 12 -12 9 C-17 5 -20-1 -17-7 C-14-14 -6-18 0-26 Z" fill="#f4ede0" fill-opacity="1.0" transform="translate(156,67) scale(0.42)"/>
<path d="M0-26 C6-18 14-14 17-7 C20-1 17 5 12 9 C8 12 3 16 0 22 C-3 16 -8 12 -12 9 C-17 5 -20-1 -17-7 C-14-14 -6-18 0-26 Z" fill="#f4ede0" fill-opacity="1.0" transform="translate(156,733) scale(0.42)"/>
<path d="M0-26 C6-18 14-14 17-7 C20-1 17 5 12 9 C8 12 3 16 0 22 C-3 16 -8 12 -12 9 C-17 5 -20-1 -17-7 C-14-14 -6-18 0-26 Z" fill="#f4ede0" fill-opacity="1.0" transform="translate(212,67) scale(0.42)"/>
<path d="M0-26 C6-18 14-14 17-7 C20-1 17 5 12 9 C8 12 3 16 0 22 C-3 16 -8 12 -12 9 C-17 5 -20-1 -17-7 C-14-14 -6-18 0-26 Z" fill="#f4ede0" fill-opacity="1.0" transform="translate(212,733) scale(0.42)"/>
<path d="M0-26 C6-18 14-14 17-7 C20-1 17 5 12 9 C8 12 3 16 0 22 C-3 16 -8 12 -12 9 C-17 5 -20-1 -17-7 C-14-14 -6-18 0-26 Z" fill="#f4ede0" fill-opacity="1.0" transform="translate(268,67) scale(0.42)"/>
<path d="M0-26 C6-18 14-14 17-7 C20-1 17 5 12 9 C8 12 3 16 0 22 C-3 16 -8 12 -12 9 C-17 5 -20-1 -17-7 C-14-14 -6-18 0-26 Z" fill="#f4ede0" fill-opacity="1.0" transform="translate(268,733) scale(0.42)"/>
<path d="M0-26 C6-18 14-14 17-7 C20-1 17 5 12 9 C8 12 3 16 0 22 C-3 16 -8 12 -12 9 C-17 5 -20-1 -17-7 C-14-14 -6-18 0-26 Z" fill="#f4ede0" fill-opacity="1.0" transform="translate(324,67) scale(0.42)"/>
<path d="M0-26 C6-18 14-14 17-7 C20-1 17 5 12 9 C8 12 3 16 0 22 C-3 16 -8 12 -12 9 C-17 5 -20-1 -17-7 C-14-14 -6-18 0-26 Z" fill="#f4ede0" fill-opacity="1.0" transform="translate(324,733) scale(0.42)"/>
<path d="M0-26 C6-18 14-14 17-7 C20-1 17 5 12 9 C8 12 3 16 0 22 C-3 16 -8 12 -12 9 C-17 5 -20-1 -17-7 C-14-14 -6-18 0-26 Z" fill="#f4ede0" fill-opacity="1.0" transform="translate(380,67) scale(0.42)"/>
<path d="M0-26 C6-18 14-14 17-7 C20-1 17 5 12 9 C8 12 3 16 0 22 C-3 16 -8 12 -12 9 C-17 5 -20-1 -17-7 C-14-14 -6-18 0-26 Z" fill="#f4ede0" fill-opacity="1.0" transform="translate(380,733) scale(0.42)"/>
<path d="M0-26 C6-18 14-14 17-7 C20-1 17 5 12 9 C8 12 3 16 0 22 C-3 16 -8 12 -12 9 C-17 5 -20-1 -17-7 C-14-14 -6-18 0-26 Z" fill="#f4ede0" fill-opacity="1.0" transform="translate(436,67) scale(0.42)"/>
<path d="M0-26 C6-18 14-14 17-7 C20-1 17 5 12 9 C8 12 3 16 0 22 C-3 16 -8 12 -12 9 C-17 5 -20-1 -17-7 C-14-14 -6-18 0-26 Z" fill="#f4ede0" fill-opacity="1.0" transform="translate(436,733) scale(0.42)"/>
<path d="M0-26 C6-18 14-14 17-7 C20-1 17 5 12 9 C8 12 3 16 0 22 C-3 16 -8 12 -12 9 C-17 5 -20-1 -17-7 C-14-14 -6-18 0-26 Z" fill="#f4ede0" fill-opacity="1.0" transform="translate(492,67) scale(0.42)"/>
<path d="M0-26 C6-18 14-14 17-7 C20-1 17 5 12 9 C8 12 3 16 0 22 C-3 16 -8 12 -12 9 C-17 5 -20-1 -17-7 C-14-14 -6-18 0-26 Z" fill="#f4ede0" fill-opacity="1.0" transform="translate(492,733) scale(0.42)"/>
<path d="M0-26 C6-18 14-14 17-7 C20-1 17 5 12 9 C8 12 3 16 0 22 C-3 16 -8 12 -12 9 C-17 5 -20-1 -17-7 C-14-14 -6-18 0-26 Z" fill="#f4ede0" fill-opacity="1.0" transform="translate(56,120) scale(0.42)"/>
<path d="M0-26 C6-18 14-14 17-7 C20-1 17 5 12 9 C8 12 3 16 0 22 C-3 16 -8 12 -12 9 C-17 5 -20-1 -17-7 C-14-14 -6-18 0-26 Z" fill="#f4ede0" fill-opacity="1.0" transform="translate(544,120) scale(0.42)"/>
<path d="M0-26 C6-18 14-14 17-7 C20-1 17 5 12 9 C8 12 3 16 0 22 C-3 16 -8 12 -12 9 C-17 5 -20-1 -17-7 C-14-14 -6-18 0-26 Z" fill="#f4ede0" fill-opacity="1.0" transform="translate(56,176) scale(0.42)"/>
<path d="M0-26 C6-18 14-14 17-7 C20-1 17 5 12 9 C8 12 3 16 0 22 C-3 16 -8 12 -12 9 C-17 5 -20-1 -17-7 C-14-14 -6-18 0-26 Z" fill="#f4ede0" fill-opacity="1.0" transform="translate(544,176) scale(0.42)"/>
<path d="M0-26 C6-18 14-14 17-7 C20-1 17 5 12 9 C8 12 3 16 0 22 C-3 16 -8 12 -12 9 C-17 5 -20-1 -17-7 C-14-14 -6-18 0-26 Z" fill="#f4ede0" fill-opacity="1.0" transform="translate(56,232) scale(0.42)"/>
<path d="M0-26 C6-18 14-14 17-7 C20-1 17 5 12 9 C8 12 3 16 0 22 C-3 16 -8 12 -12 9 C-17 5 -20-1 -17-7 C-14-14 -6-18 0-26 Z" fill="#f4ede0" fill-opacity="1.0" transform="translate(544,232) scale(0.42)"/>
<path d="M0-26 C6-18 14-14 17-7 C20-1 17 5 12 9 C8 12 3 16 0 22 C-3 16 -8 12 -12 9 C-17 5 -20-1 -17-7 C-14-14 -6-18 0-26 Z" fill="#f4ede0" fill-opacity="1.0" transform="translate(56,288) scale(0.42)"/>
<path d="M0-26 C6-18 14-14 17-7 C20-1 17 5 12 9 C8 12 3 16 0 22 C-3 16 -8 12 -12 9 C-17 5 -20-1 -17-7 C-14-14 -6-18 0-26 Z" fill="#f4ede0" fill-opacity="1.0" transform="translate(544,288) scale(0.42)"/>
<path d="M0-26 C6-18 14-14 17-7 C20-1 17 5 12 9 C8 12 3 16 0 22 C-3 16 -8 12 -12 9 C-17 5 -20-1 -17-7 C-14-14 -6-18 0-26 Z" fill="#f4ede0" fill-opacity="1.0" transform="translate(56,344) scale(0.42)"/>
<path d="M0-26 C6-18 14-14 17-7 C20-1 17 5 12 9 C8 12 3 16 0 22 C-3 16 -8 12 -12 9 C-17 5 -20-1 -17-7 C-14-14 -6-18 0-26 Z" fill="#f4ede0" fill-opacity="1.0" transform="translate(544,344) scale(0.42)"/>
<path d="M0-26 C6-18 14-14 17-7 C20-1 17 5 12 9 C8 12 3 16 0 22 C-3 16 -8 12 -12 9 C-17 5 -20-1 -17-7 C-14-14 -6-18 0-26 Z" fill="#f4ede0" fill-opacity="1.0" transform="translate(56,400) scale(0.42)"/>
<path d="M0-26 C6-18 14-14 17-7 C20-1 17 5 12 9 C8 12 3 16 0 22 C-3 16 -8 12 -12 9 C-17 5 -20-1 -17-7 C-14-14 -6-18 0-26 Z" fill="#f4ede0" fill-opacity="1.0" transform="translate(544,400) scale(0.42)"/>
<path d="M0-26 C6-18 14-14 17-7 C20-1 17 5 12 9 C8 12 3 16 0 22 C-3 16 -8 12 -12 9 C-17 5 -20-1 -17-7 C-14-14 -6-18 0-26 Z" fill="#f4ede0" fill-opacity="1.0" transform="translate(56,456) scale(0.42)"/>
<path d="M0-26 C6-18 14-14 17-7 C20-1 17 5 12 9 C8 12 3 16 0 22 C-3 16 -8 12 -12 9 C-17 5 -20-1 -17-7 C-14-14 -6-18 0-26 Z" fill="#f4ede0" fill-opacity="1.0" transform="translate(544,456) scale(0.42)"/>
<path d="M0-26 C6-18 14-14 17-7 C20-1 17 5 12 9 C8 12 3 16 0 22 C-3 16 -8 12 -12 9 C-17 5 -20-1 -17-7 C-14-14 -6-18 0-26 Z" fill="#f4ede0" fill-opacity="1.0" transform="translate(56,512) scale(0.42)"/>
<path d="M0-26 C6-18 14-14 17-7 C20-1 17 5 12 9 C8 12 3 16 0 22 C-3 16 -8 12 -12 9 C-17 5 -20-1 -17-7 C-14-14 -6-18 0-26 Z" fill="#f4ede0" fill-opacity="1.0" transform="translate(544,512) scale(0.42)"/>
<path d="M0-26 C6-18 14-14 17-7 C20-1 17 5 12 9 C8 12 3 16 0 22 C-3 16 -8 12 -12 9 C-17 5 -20-1 -17-7 C-14-14 -6-18 0-26 Z" fill="#f4ede0" fill-opacity="1.0" transform="translate(56,568) scale(0.42)"/>
<path d="M0-26 C6-18 14-14 17-7 C20-1 17 5 12 9 C8 12 3 16 0 22 C-3 16 -8 12 -12 9 C-17 5 -20-1 -17-7 C-14-14 -6-18 0-26 Z" fill="#f4ede0" fill-opacity="1.0" transform="translate(544,568) scale(0.42)"/>
<path d="M0-26 C6-18 14-14 17-7 C20-1 17 5 12 9 C8 12 3 16 0 22 C-3 16 -8 12 -12 9 C-17 5 -20-1 -17-7 C-14-14 -6-18 0-26 Z" fill="#f4ede0" fill-opacity="1.0" transform="translate(56,624) scale(0.42)"/>
<path d="M0-26 C6-18 14-14 17-7 C20-1 17 5 12 9 C8 12 3 16 0 22 C-3 16 -8 12 -12 9 C-17 5 -20-1 -17-7 C-14-14 -6-18 0-26 Z" fill="#f4ede0" fill-opacity="1.0" transform="translate(544,624) scale(0.42)"/>
<path d="M0-26 C6-18 14-14 17-7 C20-1 17 5 12 9 C8 12 3 16 0 22 C-3 16 -8 12 -12 9 C-17 5 -20-1 -17-7 C-14-14 -6-18 0-26 Z" fill="#f4ede0" fill-opacity="1.0" transform="translate(56,680) scale(0.42)"/>
<path d="M0-26 C6-18 14-14 17-7 C20-1 17 5 12 9 C8 12 3 16 0 22 C-3 16 -8 12 -12 9 C-17 5 -20-1 -17-7 C-14-14 -6-18 0-26 Z" fill="#f4ede0" fill-opacity="1.0" transform="translate(544,680) scale(0.42)"/>
<path d="M0-26 C6-18 14-14 17-7 C20-1 17 5 12 9 C8 12 3 16 0 22 C-3 16 -8 12 -12 9 C-17 5 -20-1 -17-7 C-14-14 -6-18 0-26 Z" fill="#c3996c" fill-opacity="0.16" transform="translate(140,150) scale(0.55)"/>
<path d="M0-26 C6-18 14-14 17-7 C20-1 17 5 12 9 C8 12 3 16 0 22 C-3 16 -8 12 -12 9 C-17 5 -20-1 -17-7 C-14-14 -6-18 0-26 Z" fill="#c3996c" fill-opacity="0.16" transform="translate(204,150) scale(0.55)"/>
<path d="M0-26 C6-18 14-14 17-7 C20-1 17 5 12 9 C8 12 3 16 0 22 C-3 16 -8 12 -12 9 C-17 5 -20-1 -17-7 C-14-14 -6-18 0-26 Z" fill="#c3996c" fill-opacity="0.16" transform="translate(268,150) scale(0.55)"/>
<path d="M0-26 C6-18 14-14 17-7 C20-1 17 5 12 9 C8 12 3 16 0 22 C-3 16 -8 12 -12 9 C-17 5 -20-1 -17-7 C-14-14 -6-18 0-26 Z" fill="#c3996c" fill-opacity="0.16" transform="translate(332,150) scale(0.55)"/>
<path d="M0-26 C6-18 14-14 17-7 C20-1 17 5 12 9 C8 12 3 16 0 22 C-3 16 -8 12 -12 9 C-17 5 -20-1 -17-7 C-14-14 -6-18 0-26 Z" fill="#c3996c" fill-opacity="0.16" transform="translate(396,150) scale(0.55)"/>
<path d="M0-26 C6-18 14-14 17-7 C20-1 17 5 12 9 C8 12 3 16 0 22 C-3 16 -8 12 -12 9 C-17 5 -20-1 -17-7 C-14-14 -6-18 0-26 Z" fill="#c3996c" fill-opacity="0.16" transform="translate(460,150) scale(0.55)"/>
<path d="M0-26 C6-18 14-14 17-7 C20-1 17 5 12 9 C8 12 3 16 0 22 C-3 16 -8 12 -12 9 C-17 5 -20-1 -17-7 C-14-14 -6-18 0-26 Z" fill="#c3996c" fill-opacity="0.16" transform="translate(172,214) scale(0.55)"/>
<path d="M0-26 C6-18 14-14 17-7 C20-1 17 5 12 9 C8 12 3 16 0 22 C-3 16 -8 12 -12 9 C-17 5 -20-1 -17-7 C-14-14 -6-18 0-26 Z" fill="#c3996c" fill-opacity="0.16" transform="translate(236,214) scale(0.55)"/>
<path d="M0-26 C6-18 14-14 17-7 C20-1 17 5 12 9 C8 12 3 16 0 22 C-3 16 -8 12 -12 9 C-17 5 -20-1 -17-7 C-14-14 -6-18 0-26 Z" fill="#c3996c" fill-opacity="0.16" transform="translate(300,214) scale(0.55)"/>
<path d="M0-26 C6-18 14-14 17-7 C20-1 17 5 12 9 C8 12 3 16 0 22 C-3 16 -8 12 -12 9 C-17 5 -20-1 -17-7 C-14-14 -6-18 0-26 Z" fill="#c3996c" fill-opacity="0.16" transform="translate(364,214) scale(0.55)"/>
<path d="M0-26 C6-18 14-14 17-7 C20-1 17 5 12 9 C8 12 3 16 0 22 C-3 16 -8 12 -12 9 C-17 5 -20-1 -17-7 C-14-14 -6-18 0-26 Z" fill="#c3996c" fill-opacity="0.16" transform="translate(428,214) scale(0.55)"/>
<path d="M0-26 C6-18 14-14 17-7 C20-1 17 5 12 9 C8 12 3 16 0 22 C-3 16 -8 12 -12 9 C-17 5 -20-1 -17-7 C-14-14 -6-18 0-26 Z" fill="#c3996c" fill-opacity="0.16" transform="translate(140,278) scale(0.55)"/>
<path d="M0-26 C6-18 14-14 17-7 C20-1 17 5 12 9 C8 12 3 16 0 22 C-3 16 -8 12 -12 9 C-17 5 -20-1 -17-7 C-14-14 -6-18 0-26 Z" fill="#c3996c" fill-opacity="0.16" transform="translate(204,278) scale(0.55)"/>
<path d="M0-26 C6-18 14-14 17-7 C20-1 17 5 12 9 C8 12 3 16 0 22 C-3 16 -8 12 -12 9 C-17 5 -20-1 -17-7 C-14-14 -6-18 0-26 Z" fill="#c3996c" fill-opacity="0.16" transform="translate(268,278) scale(0.55)"/>
<path d="M0-26 C6-18 14-14 17-7 C20-1 17 5 12 9 C8 12 3 16 0 22 C-3 16 -8 12 -12 9 C-17 5 -20-1 -17-7 C-14-14 -6-18 0-26 Z" fill="#c3996c" fill-opacity="0.16" transform="translate(332,278) scale(0.55)"/>
<path d="M0-26 C6-18 14-14 17-7 C20-1 17 5 12 9 C8 12 3 16 0 22 C-3 16 -8 12 -12 9 C-17 5 -20-1 -17-7 C-14-14 -6-18 0-26 Z" fill="#c3996c" fill-opacity="0.16" transform="translate(396,278) scale(0.55)"/>
<path d="M0-26 C6-18 14-14 17-7 C20-1 17 5 12 9 C8 12 3 16 0 22 C-3 16 -8 12 -12 9 C-17 5 -20-1 -17-7 C-14-14 -6-18 0-26 Z" fill="#c3996c" fill-opacity="0.16" transform="translate(460,278) scale(0.55)"/>
<path d="M0-26 C6-18 14-14 17-7 C20-1 17 5 12 9 C8 12 3 16 0 22 C-3 16 -8 12 -12 9 C-17 5 -20-1 -17-7 C-14-14 -6-18 0-26 Z" fill="#c3996c" fill-opacity="0.16" transform="translate(172,342) scale(0.55)"/>
<path d="M0-26 C6-18 14-14 17-7 C20-1 17 5 12 9 C8 12 3 16 0 22 C-3 16 -8 12 -12 9 C-17 5 -20-1 -17-7 C-14-14 -6-18 0-26 Z" fill="#c3996c" fill-opacity="0.16" transform="translate(236,342) scale(0.55)"/>
<path d="M0-26 C6-18 14-14 17-7 C20-1 17 5 12 9 C8 12 3 16 0 22 C-3 16 -8 12 -12 9 C-17 5 -20-1 -17-7 C-14-14 -6-18 0-26 Z" fill="#c3996c" fill-opacity="0.16" transform="translate(300,342) scale(0.55)"/>
<path d="M0-26 C6-18 14-14 17-7 C20-1 17 5 12 9 C8 12 3 16 0 22 C-3 16 -8 12 -12 9 C-17 5 -20-1 -17-7 C-14-14 -6-18 0-26 Z" fill="#c3996c" fill-opacity="0.16" transform="translate(364,342) scale(0.55)"/>
<path d="M0-26 C6-18 14-14 17-7 C20-1 17 5 12 9 C8 12 3 16 0 22 C-3 16 -8 12 -12 9 C-17 5 -20-1 -17-7 C-14-14 -6-18 0-26 Z" fill="#c3996c" fill-opacity="0.16" transform="translate(428,342) scale(0.55)"/>
<path d="M0-26 C6-18 14-14 17-7 C20-1 17 5 12 9 C8 12 3 16 0 22 C-3 16 -8 12 -12 9 C-17 5 -20-1 -17-7 C-14-14 -6-18 0-26 Z" fill="#c3996c" fill-opacity="0.16" transform="translate(140,406) scale(0.55)"/>
<path d="M0-26 C6-18 14-14 17-7 C20-1 17 5 12 9 C8 12 3 16 0 22 C-3 16 -8 12 -12 9 C-17 5 -20-1 -17-7 C-14-14 -6-18 0-26 Z" fill="#c3996c" fill-opacity="0.16" transform="translate(204,406) scale(0.55)"/>
<path d="M0-26 C6-18 14-14 17-7 C20-1 17 5 12 9 C8 12 3 16 0 22 C-3 16 -8 12 -12 9 C-17 5 -20-1 -17-7 C-14-14 -6-18 0-26 Z" fill="#c3996c" fill-opacity="0.16" transform="translate(268,406) scale(0.55)"/>
<path d="M0-26 C6-18 14-14 17-7 C20-1 17 5 12 9 C8 12 3 16 0 22 C-3 16 -8 12 -12 9 C-17 5 -20-1 -17-7 C-14-14 -6-18 0-26 Z" fill="#c3996c" fill-opacity="0.16" transform="translate(332,406) scale(0.55)"/>
<path d="M0-26 C6-18 14-14 17-7 C20-1 17 5 12 9 C8 12 3 16 0 22 C-3 16 -8 12 -12 9 C-17 5 -20-1 -17-7 C-14-14 -6-18 0-26 Z" fill="#c3996c" fill-opacity="0.16" transform="translate(396,406) scale(0.55)"/>
<path d="M0-26 C6-18 14-14 17-7 C20-1 17 5 12 9 C8 12 3 16 0 22 C-3 16 -8 12 -12 9 C-17 5 -20-1 -17-7 C-14-14 -6-18 0-26 Z" fill="#c3996c" fill-opacity="0.16" transform="translate(460,406) scale(0.55)"/>
<path d="M0-26 C6-18 14-14 17-7 C20-1 17 5 12 9 C8 12 3 16 0 22 C-3 16 -8 12 -12 9 C-17 5 -20-1 -17-7 C-14-14 -6-18 0-26 Z" fill="#c3996c" fill-opacity="0.16" transform="translate(172,470) scale(0.55)"/>
<path d="M0-26 C6-18 14-14 17-7 C20-1 17 5 12 9 C8 12 3 16 0 22 C-3 16 -8 12 -12 9 C-17 5 -20-1 -17-7 C-14-14 -6-18 0-26 Z" fill="#c3996c" fill-opacity="0.16" transform="translate(236,470) scale(0.55)"/>
<path d="M0-26 C6-18 14-14 17-7 C20-1 17 5 12 9 C8 12 3 16 0 22 C-3 16 -8 12 -12 9 C-17 5 -20-1 -17-7 C-14-14 -6-18 0-26 Z" fill="#c3996c" fill-opacity="0.16" transform="translate(300,470) scale(0.55)"/>
<path d="M0-26 C6-18 14-14 17-7 C20-1 17 5 12 9 C8 12 3 16 0 22 C-3 16 -8 12 -12 9 C-17 5 -20-1 -17-7 C-14-14 -6-18 0-26 Z" fill="#c3996c" fill-opacity="0.16" transform="translate(364,470) scale(0.55)"/>
<path d="M0-26 C6-18 14-14 17-7 C20-1 17 5 12 9 C8 12 3 16 0 22 C-3 16 -8 12 -12 9 C-17 5 -20-1 -17-7 C-14-14 -6-18 0-26 Z" fill="#c3996c" fill-opacity="0.16" transform="translate(428,470) scale(0.55)"/>
<path d="M0-26 C6-18 14-14 17-7 C20-1 17 5 12 9 C8 12 3 16 0 22 C-3 16 -8 12 -12 9 C-17 5 -20-1 -17-7 C-14-14 -6-18 0-26 Z" fill="#c3996c" fill-opacity="0.16" transform="translate(140,534) scale(0.55)"/>
<path d="M0-26 C6-18 14-14 17-7 C20-1 17 5 12 9 C8 12 3 16 0 22 C-3 16 -8 12 -12 9 C-17 5 -20-1 -17-7 C-14-14 -6-18 0-26 Z" fill="#c3996c" fill-opacity="0.16" transform="translate(204,534) scale(0.55)"/>
<path d="M0-26 C6-18 14-14 17-7 C20-1 17 5 12 9 C8 12 3 16 0 22 C-3 16 -8 12 -12 9 C-17 5 -20-1 -17-7 C-14-14 -6-18 0-26 Z" fill="#c3996c" fill-opacity="0.16" transform="translate(268,534) scale(0.55)"/>
<path d="M0-26 C6-18 14-14 17-7 C20-1 17 5 12 9 C8 12 3 16 0 22 C-3 16 -8 12 -12 9 C-17 5 -20-1 -17-7 C-14-14 -6-18 0-26 Z" fill="#c3996c" fill-opacity="0.16" transform="translate(332,534) scale(0.55)"/>
<path d="M0-26 C6-18 14-14 17-7 C20-1 17 5 12 9 C8 12 3 16 0 22 C-3 16 -8 12 -12 9 C-17 5 -20-1 -17-7 C-14-14 -6-18 0-26 Z" fill="#c3996c" fill-opacity="0.16" transform="translate(396,534) scale(0.55)"/>
<path d="M0-26 C6-18 14-14 17-7 C20-1 17 5 12 9 C8 12 3 16 0 22 C-3 16 -8 12 -12 9 C-17 5 -20-1 -17-7 C-14-14 -6-18 0-26 Z" fill="#c3996c" fill-opacity="0.16" transform="translate(460,534) scale(0.55)"/>
<path d="M0-26 C6-18 14-14 17-7 C20-1 17 5 12 9 C8 12 3 16 0 22 C-3 16 -8 12 -12 9 C-17 5 -20-1 -17-7 C-14-14 -6-18 0-26 Z" fill="#c3996c" fill-opacity="0.16" transform="translate(172,598) scale(0.55)"/>
<path d="M0-26 C6-18 14-14 17-7 C20-1 17 5 12 9 C8 12 3 16 0 22 C-3 16 -8 12 -12 9 C-17 5 -20-1 -17-7 C-14-14 -6-18 0-26 Z" fill="#c3996c" fill-opacity="0.16" transform="translate(236,598) scale(0.55)"/>
<path d="M0-26 C6-18 14-14 17-7 C20-1 17 5 12 9 C8 12 3 16 0 22 C-3 16 -8 12 -12 9 C-17 5 -20-1 -17-7 C-14-14 -6-18 0-26 Z" fill="#c3996c" fill-opacity="0.16" transform="translate(300,598) scale(0.55)"/>
<path d="M0-26 C6-18 14-14 17-7 C20-1 17 5 12 9 C8 12 3 16 0 22 C-3 16 -8 12 -12 9 C-17 5 -20-1 -17-7 C-14-14 -6-18 0-26 Z" fill="#c3996c" fill-opacity="0.16" transform="translate(364,598) scale(0.55)"/>
<path d="M0-26 C6-18 14-14 17-7 C20-1 17 5 12 9 C8 12 3 16 0 22 C-3 16 -8 12 -12 9 C-17 5 -20-1 -17-7 C-14-14 -6-18 0-26 Z" fill="#c3996c" fill-opacity="0.16" transform="translate(428,598) scale(0.55)"/>
<path d="M0-26 C6-18 14-14 17-7 C20-1 17 5 12 9 C8 12 3 16 0 22 C-3 16 -8 12 -12 9 C-17 5 -20-1 -17-7 C-14-14 -6-18 0-26 Z" fill="#c3996c" fill-opacity="0.16" transform="translate(140,662) scale(0.55)"/>
<path d="M0-26 C6-18 14-14 17-7 C20-1 17 5 12 9 C8 12 3 16 0 22 C-3 16 -8 12 -12 9 C-17 5 -20-1 -17-7 C-14-14 -6-18 0-26 Z" fill="#c3996c" fill-opacity="0.16" transform="translate(204,662) scale(0.55)"/>
<path d="M0-26 C6-18 14-14 17-7 C20-1 17 5 12 9 C8 12 3 16 0 22 C-3 16 -8 12 -12 9 C-17 5 -20-1 -17-7 C-14-14 -6-18 0-26 Z" fill="#c3996c" fill-opacity="0.16" transform="translate(268,662) scale(0.55)"/>
<path d="M0-26 C6-18 14-14 17-7 C20-1 17 5 12 9 C8 12 3 16 0 22 C-3 16 -8 12 -12 9 C-17 5 -20-1 -17-7 C-14-14 -6-18 0-26 Z" fill="#c3996c" fill-opacity="0.16" transform="translate(332,662) scale(0.55)"/>
<path d="M0-26 C6-18 14-14 17-7 C20-1 17 5 12 9 C8 12 3 16 0 22 C-3 16 -8 12 -12 9 C-17 5 -20-1 -17-7 C-14-14 -6-18 0-26 Z" fill="#c3996c" fill-opacity="0.16" transform="translate(396,662) scale(0.55)"/>
<path d="M0-26 C6-18 14-14 17-7 C20-1 17 5 12 9 C8 12 3 16 0 22 C-3 16 -8 12 -12 9 C-17 5 -20-1 -17-7 C-14-14 -6-18 0-26 Z" fill="#c3996c" fill-opacity="0.16" transform="translate(460,662) scale(0.55)"/>
<circle cx="300.0" cy="400.0" r="118" fill="#c3996c" fill-opacity="0.12"/>
<circle cx="300.0" cy="400.0" r="118" fill="none" stroke="#f4ede0" stroke-width="2"/>
<g transform="rotate(0 300.0 400.0)"><path d="M0-26 C6-18 14-14 17-7 C20-1 17 5 12 9 C8 12 3 16 0 22 C-3 16 -8 12 -12 9 C-17 5 -20-1 -17-7 C-14-14 -6-18 0-26 Z" fill="#c3996c" fill-opacity="1.0" transform="translate(300.0,314.0) scale(0.85)"/></g>
<g transform="rotate(45 300.0 400.0)"><path d="M0-26 C6-18 14-14 17-7 C20-1 17 5 12 9 C8 12 3 16 0 22 C-3 16 -8 12 -12 9 C-17 5 -20-1 -17-7 C-14-14 -6-18 0-26 Z" fill="#c3996c" fill-opacity="1.0" transform="translate(300.0,314.0) scale(0.85)"/></g>
<g transform="rotate(90 300.0 400.0)"><path d="M0-26 C6-18 14-14 17-7 C20-1 17 5 12 9 C8 12 3 16 0 22 C-3 16 -8 12 -12 9 C-17 5 -20-1 -17-7 C-14-14 -6-18 0-26 Z" fill="#c3996c" fill-opacity="1.0" transform="translate(300.0,314.0) scale(0.85)"/></g>
<g transform="rotate(135 300.0 400.0)"><path d="M0-26 C6-18 14-14 17-7 C20-1 17 5 12 9 C8 12 3 16 0 22 C-3 16 -8 12 -12 9 C-17 5 -20-1 -17-7 C-14-14 -6-18 0-26 Z" fill="#c3996c" fill-opacity="1.0" transform="translate(300.0,314.0) scale(0.85)"/></g>
<g transform="rotate(180 300.0 400.0)"><path d="M0-26 C6-18 14-14 17-7 C20-1 17 5 12 9 C8 12 3 16 0 22 C-3 16 -8 12 -12 9 C-17 5 -20-1 -17-7 C-14-14 -6-18 0-26 Z" fill="#c3996c" fill-opacity="1.0" transform="translate(300.0,314.0) scale(0.85)"/></g>
<g transform="rotate(225 300.0 400.0)"><path d="M0-26 C6-18 14-14 17-7 C20-1 17 5 12 9 C8 12 3 16 0 22 C-3 16 -8 12 -12 9 C-17 5 -20-1 -17-7 C-14-14 -6-18 0-26 Z" fill="#c3996c" fill-opacity="1.0" transform="translate(300.0,314.0) scale(0.85)"/></g>
<g transform="rotate(270 300.0 400.0)"><path d="M0-26 C6-18 14-14 17-7 C20-1 17 5 12 9 C8 12 3 16 0 22 C-3 16 -8 12 -12 9 C-17 5 -20-1 -17-7 C-14-14 -6-18 0-26 Z" fill="#c3996c" fill-opacity="1.0" transform="translate(300.0,314.0) scale(0.85)"/></g>
<g transform="rotate(315 300.0 400.0)"><path d="M0-26 C6-18 14-14 17-7 C20-1 17 5 12 9 C8 12 3 16 0 22 C-3 16 -8 12 -12 9 C-17 5 -20-1 -17-7 C-14-14 -6-18 0-26 Z" fill="#c3996c" fill-opacity="1.0" transform="translate(300.0,314.0) scale(0.85)"/></g>
<path d="M0-26 C6-18 14-14 17-7 C20-1 17 5 12 9 C8 12 3 16 0 22 C-3 16 -8 12 -12 9 C-17 5 -20-1 -17-7 C-14-14 -6-18 0-26 Z" fill="#f4ede0" fill-opacity="1.0" transform="translate(300.0,408.0) scale(1.7)"/>
<path d="M0-26 C6-18 14-14 17-7 C20-1 17 5 12 9 C8 12 3 16 0 22 C-3 16 -8 12 -12 9 C-17 5 -20-1 -17-7 C-14-14 -6-18 0-26 Z" fill="#c3996c" fill-opacity="1.0" transform="translate(300.0,404.0) scale(1.05)"/>
<circle cx="72" cy="78" r="64" fill="#c3996c" fill-opacity="0.25"/>
<circle cx="72" cy="78" r="64" fill="none" stroke="#f4ede0" stroke-width="2"/>
<circle cx="528" cy="78" r="64" fill="#c3996c" fill-opacity="0.25"/>
<circle cx="528" cy="78" r="64" fill="none" stroke="#f4ede0" stroke-width="2"/>
<circle cx="72" cy="722" r="64" fill="#c3996c" fill-opacity="0.25"/>
<circle cx="72" cy="722" r="64" fill="none" stroke="#f4ede0" stroke-width="2"/>
<circle cx="528" cy="722" r="64" fill="#c3996c" fill-opacity="0.25"/>
<circle cx="528" cy="722" r="64" fill="none" stroke="#f4ede0" stroke-width="2"/>
</g>
<rect x="20" y="26" width="560" height="748" fill="none" stroke="#c3996c" stroke-width="8"/>
</svg>