<svg xmlns="http://www.w3.org/2000/svg" viewBox="352.1 244.9 137.7 103.4">
<g transform="matrix(1,0,0,-1,0,595.276)">
<path d="M485.7438 267.676V346.294H356.1068V267.676 265.673 250.98H360.1068V265.673H363.4998V250.98H367.4998V265.673H370.8918V250.98H374.8918V265.673H378.2848V250.98H382.2848V265.673H385.6788V250.98H389.6788V265.673H393.0708V250.98H397.0708V265.673H400.4638V250.98H404.4638V265.673H407.8558V250.98H411.8558V265.673H415.2488V250.98H419.2488V265.673H422.6408V250.98H426.6408V265.673H430.0338V250.98H434.0338V265.673H437.4268V250.98H441.4268V265.673H444.8188V250.98H448.8188V265.673H452.2128V250.98H456.2128V265.673H459.6048V250.98H463.6048V265.673H466.9978V250.98H470.9978V265.673H474.3898V250.98H478.3898V265.673H481.7828V250.98H485.7828V267.676Z" fill="#c3996c"/>
<path d="M423.7575 294.675 420.7955 297.638 417.8335 294.675C416.2895 293.132 416.2895 290.63 417.8335 289.087L420.7955 286.125 423.7575 289.087C425.3005 290.63 425.3005 293.132 423.7575 294.675" fill="#5f3263"/>
<path d="M420.7956 297.6379 419.0326 300.2339C417.0556 303.1439 413.0046 307.5599 404.9416 312.0629 396.0906 317.0049 392.9146 323.5309 391.8736 326.5289 385.3456 327.4329 371.8796 332.5419 367.9166 348.8139L367.2746 351.4499H474.3166L473.6746 348.8139C469.4016 331.2749 454.6136 327.3929 449.7376 326.5839 448.7196 323.6229 445.5636 317.0399 436.6496 312.0629 428.5836 307.5579 424.5346 303.1439 422.5586 300.2339Z" fill="#5f3263"/>
</g>
</svg>
