<svg xmlns="http://www.w3.org/2000/svg" viewBox="328.6 241.8 201.2 159" width="201.2" height="159">
<g transform="matrix(1,0,0,-1,0,595.276)">
<path d="M485.7438 267.676V346.294H356.1068V267.676 265.673 250.98H360.1068V265.673H363.4998V250.98H367.4998V265.673H370.8918V250.98H374.8918V265.673H378.2848V250.98H382.2848V265.673H385.6788V250.98H389.6788V265.673H393.0708V250.98H397.0708V265.673H400.4638V250.98H404.4638V265.673H407.8558V250.98H411.8558V265.673H415.2488V250.98H419.2488V265.673H422.6408V250.98H426.6408V265.673H430.0338V250.98H434.0338V265.673H437.4268V250.98H441.4268V265.673H444.8188V250.98H448.8188V265.673H452.2128V250.98H456.2128V265.673H459.6048V250.98H463.6048V265.673H466.9978V250.98H470.9978V265.673H474.3898V250.98H478.3898V265.673H481.7828V250.98H485.7828V267.676Z" fill="#c3996c"/>
<path d="M527.7516 234.3186H527.0096V239.1376L525.0236 234.3186H524.8126L522.8256 239.1376V234.3186H522.0846V240.1436H523.2236L524.9176 235.9076 526.6126 240.1436H527.7516ZM521.1306 239.4556H519.4886V234.3186H518.7476V239.4556H517.1056V240.1436H521.1306Z" fill="#c3996c"/>
<path d="M384.654 196.4895C383.342 196.4895 382.241 196.9405 381.347 197.8435 380.455 198.7455 380.008 199.8985 380.008 201.3025 380.008 202.7075 380.455 203.8605 381.347 204.7625 382.241 205.6655 383.342 206.1165 384.654 206.1165 385.966 206.1165 387.045 205.6285 387.891 204.6515L387.543 204.3445C387.208 204.7625 386.787 205.0935 386.28 205.3355 385.772 205.5765 385.231 205.6975 384.654 205.6975 383.473 205.6975 382.485 205.2885 381.689 204.4695 380.894 203.6515 380.497 202.5955 380.497 201.3025 380.497 200.0195 380.894 198.9665 381.689 198.1425 382.485 197.3195 383.473 196.9085 384.654 196.9085 385.231 196.9085 385.772 197.0295 386.28 197.2705 386.787 197.5125 387.208 197.8435 387.543 198.2615L387.905 197.9685C387.031 196.9825 385.947 196.4895 384.654 196.4895" fill="#9fb3ae"/>
<path d="M399.736 199.5734 397.308 205.4464 394.881 199.5734ZM401.452 196.6574H400.935L399.903 199.1544H394.714L393.68 196.6574H393.165L397.043 205.9634H397.573Z" fill="#9fb3ae"/>
<path d="M410.6461 201.0939C411.3251 201.0939 411.8721 201.3029 412.2861 201.7219 412.6991 202.1399 412.9061 202.6749 412.9061 203.3259 412.9061 203.9769 412.6991 204.5099 412.2861 204.9229 411.8721 205.3369 411.3251 205.5439 410.6461 205.5439H407.8831V201.0939ZM413.5201 196.6569H412.9481L410.1161 200.6749H407.8831V196.6569H407.4371V205.9629H410.6461C411.4361 205.9629 412.0921 205.7279 412.6131 205.2579 413.1341 204.7879 413.3941 204.1449 413.3941 203.3259 413.3941 202.5069 413.1311 201.8619 412.6061 201.3869 412.0811 200.9119 411.4271 200.6749 410.6461 200.6749Z" fill="#9fb3ae"/>
<path d="M423.1881 201.1076C423.8671 201.1076 424.4111 201.3146 424.8201 201.7286 425.2291 202.1426 425.4341 202.6746 425.4341 203.3266 425.4341 203.9766 425.2291 204.5096 424.8201 204.9226 424.4111 205.3366 423.8671 205.5446 423.1881 205.5446H420.4251V201.1076ZM420.4251 196.6576H419.9791V205.9626H423.2021C424.0391 205.9626 424.7021 205.7096 425.1901 205.2026 425.6781 204.6956 425.9221 204.0706 425.9221 203.3266 425.9221 202.5906 425.6761 201.9676 425.1831 201.4566 424.6901 200.9446 424.0301 200.6896 423.2021 200.6896H420.4251Z" fill="#9fb3ae"/>
<path d="M437.8795 196.6574H432.1875V205.9634H437.8795V205.5444H432.6335V201.6514H437.7815V201.2334H432.6335V197.0754H437.8795Z" fill="#9fb3ae"/>
<path d="M447.3249 196.6574H446.8789V205.5444H443.7389V205.9634H450.4769V205.5444H447.3249Z" fill="#9fb3ae"/>
<path d="M459.4626 196.4895C458.7646 196.4895 458.1366 196.6245 457.5786 196.8945 457.0216 197.1645 456.5656 197.5225 456.2116 197.9685L456.5736 198.2895C457.3276 197.3685 458.2906 196.9085 459.4626 196.9085 459.9736 196.9085 460.4156 196.9755 460.7876 197.1105 461.1596 197.2455 461.4386 197.4225 461.6246 197.6405 461.8106 197.8595 461.9456 198.0825 462.0286 198.3105 462.1126 198.5385 462.1546 198.7725 462.1546 199.0145 462.1546 199.4895 462.0156 199.8865 461.7356 200.2085 461.4576 200.5285 461.1086 200.7595 460.6906 200.8985 460.2716 201.0385 459.8176 201.1845 459.3296 201.3385 458.8416 201.4915 458.3886 201.6395 457.9696 201.7845 457.5506 201.9285 457.2016 202.1685 456.9236 202.5035 456.6446 202.8385 456.5046 203.2515 456.5046 203.7445 456.5046 204.4695 456.7876 205.0475 457.3556 205.4745 457.9226 205.9025 458.6106 206.1165 459.4206 206.1165 460.7226 206.1165 461.7276 205.6785 462.4346 204.8045L462.0856 204.4835C461.4616 205.2935 460.5736 205.6975 459.4206 205.6975 458.7326 205.6975 458.1546 205.5135 457.6906 205.1465 457.2256 204.7795 456.9926 204.3115 456.9926 203.7445 456.9926 203.3905 457.0976 203.0895 457.3066 202.8385 457.5166 202.5865 457.7856 202.3905 458.1156 202.2525 458.4456 202.1125 458.8136 201.9845 459.2186 201.8685 459.6226 201.7525 460.0246 201.6265 460.4246 201.4915 460.8246 201.3565 461.1906 201.1965 461.5206 201.0105 461.8506 200.8235 462.1196 200.5615 462.3296 200.2215 462.5386 199.8825 462.6436 199.4795 462.6436 199.0145 462.6436 198.7265 462.5926 198.4455 462.4896 198.1715 462.3876 197.8965 462.2246 197.6275 462.0016 197.3615 461.7776 197.0965 461.4476 196.8855 461.0106 196.7265 460.5736 196.5685 460.0576 196.4895 459.4626 196.4895" fill="#9fb3ae"/>
<path d="M330.726 201.227H366.80503V201.64601H330.726Z" fill="#9fb3ae"/>
<path d="M474.817 201.227H510.896V201.64601H474.817Z" fill="#9fb3ae"/>
<path d="M353.9909 218.9719V218.7089H347.9349V218.9719C348.0929 219.1559 348.7739 219.8889 348.6429 221.2519L347.1749 232.4199 342.0629 218.7089H340.9359L335.6399 232.2879 334.0939 220.5969C333.9889 219.6789 334.4869 219.1029 334.6439 218.9719V218.7089H330.6339V218.9719C330.8169 219.1029 331.3149 219.6539 331.4199 220.5969L333.2809 234.5169C333.4119 235.9849 332.7049 236.6149 332.5209 236.7969V237.0599H338.2359L342.2469 226.0239 346.2049 237.0599H351.9199V236.7969C351.7359 236.6149 351.0539 235.9329 351.1599 234.5169L352.9159 221.2519C353.0469 219.8369 353.8339 219.1559 353.9909 218.9719" fill="#c3996c"/>
<path d="M370.9567 228.6975C370.3797 232.5515 368.0727 235.4865 364.5077 234.9625 360.8377 234.3855 360.1557 230.5585 360.6807 227.2035 361.2577 223.3495 363.5637 220.4135 367.1297 220.9645 370.7997 221.5145 371.4807 225.3425 370.9567 228.6975M366.3947 218.4475C359.5797 218.3425 355.9097 222.5895 355.8567 227.8585 355.7777 233.1005 359.7637 237.4005 365.3727 237.4535 372.1887 237.5575 375.7277 233.3105 375.7797 228.0675 375.8587 222.7995 372.0057 218.4995 366.3947 218.4475" fill="#c3996c"/>
<path d="M394.9733 234.5168V221.2518C394.9733 219.8368 395.7073 219.1558 395.8653 218.9718V218.7088H389.8353V218.9718C389.9933 219.1558 390.7273 219.8368 390.7273 221.2518V226.5738H383.3083V221.2518C383.3083 219.8368 384.0413 219.1558 384.2253 218.9718V218.7088H378.1693V218.9718C378.3273 219.1558 379.0613 219.8368 379.0613 221.2518V234.5168C379.0613 235.9328 378.3273 236.6148 378.1693 236.7968V237.0598H384.2253V236.7968C384.0413 236.6148 383.3083 235.9328 383.3083 234.5168V229.1958H390.7273V234.5168C390.7273 235.9328 389.9933 236.6148 389.8353 236.7968V237.0598H395.8653V236.7968C395.7073 236.6148 394.9733 235.9328 394.9733 234.5168" fill="#c3996c"/>
<path d="M413.2751 237.4533 412.3321 233.7043H412.1221C411.9381 234.0453 411.4401 234.3333 410.6281 234.3333H407.8761V221.2523C407.8761 219.8373 408.5831 219.1553 408.7661 218.9723V218.7093H402.7371V218.9723C402.8941 219.1553 403.6291 219.8373 403.6291 221.2523V234.3333H400.7971C399.2511 234.3333 398.6221 233.3903 398.4901 233.1803L398.2281 233.2593 399.2511 237.2953H399.4341C399.7221 237.0593 400.3511 237.0593 400.7971 237.0593H410.8901C412.4361 237.0593 412.8301 237.3213 413.0661 237.5313Z" fill="#c3996c"/>
<path d="M422.7682 226.5734 420.8292 231.6854 418.9412 226.5734ZM424.4722 218.7094V218.9714C424.9172 219.4434 425.1802 220.2824 424.6032 221.8294L423.7642 223.9784H417.9972L417.1582 221.7234C416.7122 220.4664 416.7122 219.4434 417.1322 218.9714V218.7094H412.4922V218.9714C413.2262 219.2604 413.8552 220.4134 414.3792 221.7234L418.9142 233.5734C419.7272 235.6964 419.3602 236.6144 419.0722 236.7974V237.0594H422.8992L429.1912 221.6454C429.6632 220.4664 430.4492 219.2604 431.2092 218.9714V218.7094Z" fill="#c3996c"/>
<path d="M445.9713 224.1887C445.9713 219.6007 442.2233 218.4477 438.8943 218.4477 435.7213 218.4477 433.8863 219.2077 432.7853 219.8627V223.8997L433.0473 223.9787C434.1753 222.3787 436.3513 221.2257 438.3433 221.2257 440.2833 221.2257 441.2793 221.8297 441.2793 223.1137 441.2793 226.2587 433.3363 226.5997 433.3363 232.1577 433.3363 236.7717 437.7923 237.4537 439.7333 237.4537 441.6723 237.4537 443.0093 237.0067 443.9523 236.6927 443.9523 236.6927 444.2423 233.9927 444.3203 233.4677L444.0843 233.4167C443.5073 234.0187 441.7773 234.9107 440.0743 234.9107 438.8413 234.9107 437.4253 234.5427 437.4253 233.1537 437.4253 230.2177 445.9713 229.8247 445.9713 224.1887" fill="#c3996c"/>
<path d="M465.4001 234.5168V221.2518C465.4001 219.8368 466.1331 219.1558 466.2911 218.9718V218.7088H460.2611V218.9718C460.4191 219.1558 461.1531 219.8368 461.1531 221.2518V226.5738H453.7341V221.2518C453.7341 219.8368 454.4681 219.1558 454.6521 218.9718V218.7088H448.5961V218.9718C448.7541 219.1558 449.4881 219.8368 449.4881 221.2518V234.5168C449.4881 235.9328 448.7541 236.6148 448.5961 236.7968V237.0598H454.6521V236.7968C454.4681 236.6148 453.7341 235.9328 453.7341 234.5168V229.1958H461.1531V234.5168C461.1531 235.9328 460.4191 236.6148 460.2611 236.7968V237.0598H466.2911V236.7968C466.1331 236.6148 465.4001 235.9328 465.4001 234.5168" fill="#c3996c"/>
<path d="M478.1442 226.5734 476.2052 231.6854 474.3172 226.5734ZM479.8482 218.7094V218.9714C480.2932 219.4434 480.5562 220.2824 479.9792 221.8294L479.1402 223.9784H473.3732L472.5342 221.7234C472.0882 220.4664 472.0882 219.4434 472.5082 218.9714V218.7094H467.8682V218.9714C468.6022 219.2604 469.2312 220.4134 469.7552 221.7234L474.2902 233.5734C475.1032 235.6964 474.7362 236.6144 474.4482 236.7974V237.0594H478.2752L484.5672 221.6454C485.0392 220.4664 485.8252 219.2604 486.5852 218.9714V218.7094Z" fill="#c3996c"/>
<path d="M511.2565 218.9719V218.7089H505.2005V218.9719C505.3585 219.1559 506.0395 219.8889 505.9085 221.2519L504.4415 232.4199 499.3285 218.7089H498.2015L492.9065 232.2879 491.3605 220.5969C491.2555 219.6789 491.7535 219.1029 491.9105 218.9719V218.7089H487.9005V218.9719C488.0825 219.1029 488.5805 219.6539 488.6865 220.5969L490.5475 234.5169C490.6785 235.9849 489.9705 236.6149 489.7865 236.7969V237.0599H495.5015L499.5125 226.0239 503.4715 237.0599H509.1865V236.7969C509.0025 236.6149 508.3205 235.9329 508.4255 234.5169L510.1825 221.2519C510.3135 219.8369 511.0995 219.1559 511.2565 218.9719" fill="#c3996c"/>
<path d="M423.7575 294.675 420.7955 297.638 417.8335 294.675C416.2895 293.132 416.2895 290.63 417.8335 289.087L420.7955 286.125 423.7575 289.087C425.3005 290.63 425.3005 293.132 423.7575 294.675" fill="#f0e3c6"/>
<path d="M420.7956 297.6379 419.0326 300.2339C417.0556 303.1439 413.0046 307.5599 404.9416 312.0629 396.0906 317.0049 392.9146 323.5309 391.8736 326.5289 385.3456 327.4329 371.8796 332.5419 367.9166 348.8139L367.2746 351.4499H474.3166L473.6746 348.8139C469.4016 331.2749 454.6136 327.3929 449.7376 326.5839 448.7196 323.6229 445.5636 317.0399 436.6496 312.0629 428.5836 307.5579 424.5346 303.1439 422.5586 300.2339Z" fill="#f0e3c6"/>
</g>
</svg>
