<svg xmlns="http://www.w3.org/2000/svg" viewBox="0 0 80 104" width="80" height="104">
<g fill="#c3996c">
<path d="M0-26 C6-18 14-14 17-7 C20-1 17 5 12 9 C8 12 3 16 0 22 C-3 16 -8 12 -12 9 C-17 5 -20-1 -17-7 C-14-14 -6-18 0-26 Z" transform="translate(20,26) scale(0.72)"/>
<path d="M0-26 C6-18 14-14 17-7 C20-1 17 5 12 9 C8 12 3 16 0 22 C-3 16 -8 12 -12 9 C-17 5 -20-1 -17-7 C-14-14 -6-18 0-26 Z" transform="translate(60,78) scale(0.72)"/>
<path d="M0-26 C6-18 14-14 17-7 C20-1 17 5 12 9 C8 12 3 16 0 22 C-3 16 -8 12 -12 9 C-17 5 -20-1 -17-7 C-14-14 -6-18 0-26 Z" transform="translate(-20,78) scale(0.72)"/>
<path d="M0-26 C6-18 14-14 17-7 C20-1 17 5 12 9 C8 12 3 16 0 22 C-3 16 -8 12 -12 9 C-17 5 -20-1 -17-7 C-14-14 -6-18 0-26 Z" transform="translate(100,26) scale(0.72)"/>
<path d="M0-26 C6-18 14-14 17-7 C20-1 17 5 12 9 C8 12 3 16 0 22 C-3 16 -8 12 -12 9 C-17 5 -20-1 -17-7 C-14-14 -6-18 0-26 Z" transform="translate(20,130) scale(0.72)"/>
<path d="M0-26 C6-18 14-14 17-7 C20-1 17 5 12 9 C8 12 3 16 0 22 C-3 16 -8 12 -12 9 C-17 5 -20-1 -17-7 C-14-14 -6-18 0-26 Z" transform="translate(60,-26) scale(0.72)"/>
<path d="M0-26 C6-18 14-14 17-7 C20-1 17 5 12 9 C8 12 3 16 0 22 C-3 16 -8 12 -12 9 C-17 5 -20-1 -17-7 C-14-14 -6-18 0-26 Z" transform="translate(-20,-26) scale(0.72)"/>
</g>
</svg>